<svg width="25" height="29" viewBox="0 0 25 29" fill="none" xmlns="http://www.w3.org/2000/svg">
<path d="M12.4479 14.2262C16.3768 14.2262 19.561 11.042 19.561 7.1131C19.561 3.18422 16.3768 0 12.4479 0C8.51904 0 5.33482 3.18422 5.33482 7.1131C5.33482 11.042 8.51904 14.2262 12.4479 14.2262ZM17.4271 16.0045H16.499C15.2654 16.5713 13.8928 16.8936 12.4479 16.8936C11.0031 16.8936 9.63602 16.5713 8.39679 16.0045H7.46875C3.34538 16.0045 0 19.3498 0 23.4732V25.785C0 27.2576 1.19478 28.4524 2.66741 28.4524H22.2284C23.7011 28.4524 24.8958 27.2576 24.8958 25.785V23.4732C24.8958 19.3498 21.5505 16.0045 17.4271 16.0045Z" fill="#9E9E9E"/>
</svg>
