<svg width="28" height="28" viewBox="0 0 28 28" fill="none" xmlns="http://www.w3.org/2000/svg">
<path d="M27.6206 24.2131L22.1675 18.7601C21.9214 18.514 21.5878 18.3772 21.2377 18.3772H20.3462C21.8558 16.4465 22.7528 14.0181 22.7528 11.3764C22.7528 5.09203 17.6607 0 11.3764 0C5.09203 0 0 5.09203 0 11.3764C0 17.6607 5.09203 22.7528 11.3764 22.7528C14.0181 22.7528 16.4465 21.8558 18.3772 20.3462V21.2377C18.3772 21.5878 18.514 21.9214 18.7601 22.1675L24.2131 27.6206C24.7272 28.1347 25.5586 28.1347 26.0672 27.6206L27.6151 26.0727C28.1292 25.5586 28.1292 24.7272 27.6206 24.2131ZM11.3764 18.3772C7.50951 18.3772 4.37553 15.2487 4.37553 11.3764C4.37553 7.50951 7.50404 4.37553 11.3764 4.37553C15.2433 4.37553 18.3772 7.50404 18.3772 11.3764C18.3772 15.2433 15.2487 18.3772 11.3764 18.3772Z" fill="#9E9E9E"/>
</svg>
